<?xml version="1.0" encoding="utf-8"?>
<!DOCTYPE svg PUBLIC "-//W3C//DTD SVG 1.0//EN" "http://www.w3.org/TR/2001/REC-SVG-20010904/DTD/svg10.dtd">
<svg version="1.0" xmlns="http://www.w3.org/2000/svg" width="807px" height="214px" viewBox="0 0 807 214" preserveAspectRatio="xMidYMid meet">
 <g fill="#ffffff">
  <path d="M161.3 186.4 c0.3 -2.7 1 -9.5 1.8 -15.2 l1.2 -10.3 -3.9 -4.2 c-7.8 -8.2 -12.2 -17 -14.4 -28.8 -1 -5.7 -0.9 -7.9 0.5 -14.8 0.9 -4.6 2.4 -9.9 3.3 -11.9 4.9 -10.8 16.9 -22.9 28.9 -29.3 9.9 -5.2 17.8 -7.7 30.2 -9.3 24.2 -3.2 48.6 3.7 65.5 18.4 6.5 5.7 12.9 13.8 15.8 20.2 0.9 2 2.4 7.3 3.3 11.9 1.9 9 1.1 16.6 -2.6 26.1 -6.5 16.7 -23.4 31 -44.5 37.7 -15.9 5 -40.8 4.8 -54.8 -0.5 l-3.8 -1.5 -12.7 7.7 c-6.9 4.3 -13 7.9 -13.5 8.2 -0.4 0.2 -0.6 -1.7 -0.3 -4.4z m14.8 -10.6 c8.3 -5.3 11.8 -6.1 18.8 -4.1 11.1 3 15.8 3.5 29.1 3 15.2 -0.6 21.7 -2.2 34 -8.4 9.3 -4.7 22.7 -17.5 25.9 -24.8 5.3 -11.9 6.2 -21.1 3.3 -31.6 -7.8 -27.9 -41.2 -46.2 -76.9 -42 -18.4 2.2 -32.6 8.5 -43.7 19.5 -8 7.9 -11.4 13.7 -14 24.2 -2.1 8 -2 12.5 0.2 20.5 2.3 8.1 6.1 14.8 12.1 21.3 4.5 4.8 4.6 5 4.5 11.5 0 3.6 -0.4 8.5 -0.7 10.9 -0.4 2.3 -0.3 4.2 0.1 4.2 0.5 0 3.8 -1.9 7.3 -4.2z"/>
  <path d="M181.1 123.4 c-4.3 -5.4 -1 -12.4 5.8 -12.4 4.9 0 8.1 2.9 8.1 7.4 0 7.1 -9.6 10.5 -13.9 5z"/>
  <path d="M216.5 123.5 c-3 -3 -3.2 -6.4 -0.4 -9.9 4.3 -5.5 13.9 -2.3 13.9 4.8 0 6.9 -8.5 10.2 -13.5 5.1z"/>
  <path d="M251.2 123.7 c-4.8 -5.1 -1.2 -12.7 5.9 -12.7 7 0 10.5 8.2 5.6 12.8 -3.2 3 -8.7 2.9 -11.5 -0.1z"/>
  <path d="M85 181.5 c-14.4 -4 -25.9 -12.8 -31.1 -23.8 -4.7 -10.1 -6.2 -19.1 -6.2 -36.2 0.1 -17.1 1.9 -26.3 7.4 -36.6 11.6 -21.7 43.1 -29.7 73.6 -18.7 l8.3 3 0 4.8 0 4.8 -6.2 -3.3 c-10 -5.3 -17.4 -6.8 -30.8 -6.2 -13.7 0.6 -19.9 2.3 -27.2 7.7 -10.6 7.9 -15.6 20.2 -16.5 41 -0.9 20.6 2.9 35.7 11.3 45 7.8 8.6 16 11.9 31.5 12.7 12.4 0.7 21.9 -1 31.7 -5.7 l6.3 -3 -0.3 4.8 -0.3 4.7 -8.5 2.9 c-7.5 2.5 -10.2 2.9 -23 3.2 -10.8 0.3 -15.9 0 -20 -1.1z"/>
  <path d="M674 181.4 c-19 -5 -31.2 -18.5 -35.5 -39.2 -3.5 -16.9 -1 -42.3 5.5 -55.1 9.7 -19.3 31.4 -29.3 54.5 -25 22.1 4.1 33.7 20.6 36 51.2 l0.7 9.7 -44.7 0 -44.8 0 0.6 9.8 c1.6 28.1 14.7 41.4 42.2 42.9 12.8 0.7 22.4 -1.5 40.3 -9.4 0.8 -0.4 1.2 0.8 1.2 4 0 4.3 -0.1 4.5 -4.1 6.1 -2.3 1 -8.7 2.8 -14.3 4.2 -11.9 2.8 -28.6 3.2 -37.6 0.8z m51.6 -73.4 c-1.3 -15.5 -7.1 -27.4 -16.6 -33.8 -9.8 -6.6 -28.8 -7 -41 -0.7 -5.7 2.9 -11.6 8.2 -14.3 12.7 -3 5.2 -6.3 16.2 -7.2 24.1 l-0.6 5.7 40.2 0 40.2 0 -0.7 -8z"/>
  <path d="M312 122.5 l0 -58.5 4.5 0 4.5 0 0 11.3 0.1 11.2 1.8 -3.5 c9.6 -18 36.2 -27.1 54.7 -18.6 10.3 4.7 16.2 12.5 20 26.1 1.4 5 1.7 13.2 2.1 48.3 l0.5 42.2 -4.6 0 -4.6 0 0 -39.5 c0 -32.1 -0.3 -41 -1.6 -47.3 -3.9 -19.1 -12.4 -25.9 -31.3 -25 -7 0.3 -9.9 1 -15.3 3.5 -8.9 4.2 -15.9 11.1 -18.9 18.8 -2.3 5.9 -2.4 6.6 -2.7 47.8 l-0.3 41.7 -4.5 0 -4.4 0 0 -58.5z"/>
  <path d="M448 122.5 l0 -58.5 4.5 0 4.5 0 0 11.2 0 11.2 4.3 -6.5 c7.9 -11.9 20.8 -18.3 37.2 -18.3 7.8 0 9.8 0.3 15.3 2.8 6.9 3.2 14.2 10.3 16.9 16.5 4.5 10.6 4.6 11.7 5 56.9 l0.4 43.2 -4.5 0 -4.5 0 -0.3 -44.2 c-0.3 -43 -0.4 -44.5 -2.6 -49.8 -2.8 -7 -7.3 -12.5 -12.5 -15.3 -3.6 -1.9 -5.7 -2.2 -15.2 -2.2 -10.4 0 -11.4 0.2 -17.5 3.2 -8.7 4.3 -13 8.1 -16.3 14.2 -5.1 9.3 -5.7 15 -5.7 56.4 l0 37.7 -4.5 0 -4.5 0 0 -58.5z"/>
  <path d="M584 122.5 l0 -58.5 4.5 0 4.5 0 0 58.5 0 58.5 -4.5 0 -4.5 0 0 -58.5z"/>
  <path d="M584 24.5 l0 -6.5 4.5 0 4.5 0 0 6.5 0 6.5 -4.5 0 -4.5 0 0 -6.5z"/>
 </g>
</svg>